<svg width="68" height="91" viewBox="0 0 68 91" fill="none" xmlns="http://www.w3.org/2000/svg">
<path d="M35 69L33.5 45.5L49 53L35 69Z" fill="#494949"/>
<path d="M33.5 45.5L37 0L5 24L33.5 45.5Z" fill="#191A1C"/>
<path d="M49 53L61 16L37 0L33.5 45.5L49 53Z" fill="#3A3A3A"/>
<path d="M35.5 69.5L68 65L61 16L49 53L35.5 69.5Z" fill="#404040"/>
<path d="M49 53L68 65L35 69L49 53Z" fill="#3E3E3E"/>
<path d="M29 74.5L0 47L5 24L33.5 45.5L29 74.5Z" fill="#262626"/>
<path d="M5 71L0 47L29 74L30 91L5 71Z" fill="#131313"/>
<path d="M59 86L30 91L29 74L33.5 45.5L35 69L68 65L59 86Z" fill="#393939"/>
<path d="M35 69L59 86L68 65L35 69Z" fill="#363636"/>
<path d="M35 69L29 74L33.5 45.5L35 69Z" fill="#414141"/>
</svg>
