<svg width="32" height="30" viewBox="0 0 32 30" fill="none" xmlns="http://www.w3.org/2000/svg">
<path d="M7.63636 29.4545C5.09091 29.4545 3.18182 28.6667 1.90909 27.0909C0.636364 25.4545 0 23.3333 0 20.7273C0 17.6364 0.787879 14.3333 2.36364 10.8182C3.93939 7.24243 6.27273 3.63636 9.36364 0L12.7273 2.54546C11.4545 4.12121 10.1515 6.33333 8.81818 9.18182C7.54545 11.9697 6.87879 14.5455 6.81818 16.9091C7.42424 16.7273 8.06061 16.6364 8.72727 16.6364C10.4242 16.6364 11.8485 17.1212 13 18.0909C14.1515 19 14.7273 20.3939 14.7273 22.2727C14.7273 24.2727 14.0303 25.9697 12.6364 27.3636C11.303 28.7576 9.63636 29.4545 7.63636 29.4545ZM24.9091 29.4545C22.3636 29.4545 20.4545 28.6667 19.1818 27.0909C17.9091 25.4545 17.2727 23.3333 17.2727 20.7273C17.2727 17.6364 18.0606 14.3333 19.6364 10.8182C21.2121 7.24243 23.5455 3.63636 26.6364 0L30 2.54546C28.7273 4.12121 27.4242 6.33333 26.0909 9.18182C24.8182 11.9697 24.1515 14.5455 24.0909 16.9091C24.697 16.7273 25.3333 16.6364 26 16.6364C27.697 16.6364 29.1212 17.1212 30.2727 18.0909C31.4242 19 32 20.3939 32 22.2727C32 24.2727 31.303 25.9697 29.9091 27.3636C28.5758 28.7576 26.9091 29.4545 24.9091 29.4545Z" fill="#BE8D7E"/>
</svg>
