<svg width="18" height="17" viewBox="0 0 18 17" fill="none" xmlns="http://www.w3.org/2000/svg">
<path d="M17.7138 2.03031C17.3138 2.21993 16.8987 2.36944 16.4727 2.47761C16.9421 2.00104 17.2951 1.40475 17.4941 0.739357C17.551 0.549478 17.3578 0.385064 17.1973 0.486797C16.6046 0.862552 15.9662 1.14419 15.2998 1.32442C15.2613 1.33492 15.2215 1.34017 15.1814 1.34017C15.0598 1.34017 14.9421 1.29206 14.849 1.20464C14.1401 0.536876 13.2282 0.169128 12.2814 0.169128C11.8716 0.169128 11.458 0.237388 11.052 0.372003C9.7937 0.788976 8.82278 1.89826 8.51801 3.26666C8.40377 3.77979 8.37294 4.2937 8.42613 4.79357C8.43209 4.85107 8.40684 4.8911 8.39118 4.90987C8.36354 4.94282 8.3246 4.96179 8.284 4.96179C8.27958 4.96179 8.27479 4.96159 8.27024 4.96113C5.51582 4.68757 3.03195 3.26961 1.27645 0.968157C1.18709 0.850737 1.01523 0.865178 0.943864 0.995855C0.600159 1.62634 0.41848 2.34719 0.41848 3.08078C0.41848 4.2049 0.841293 5.26443 1.57544 6.03688C1.26669 5.95857 0.967817 5.83538 0.690139 5.67051C0.555753 5.59083 0.390595 5.69348 0.388691 5.85763C0.369651 7.52769 1.28468 9.01377 2.65538 9.68291C2.62774 9.68357 2.60011 9.68383 2.57247 9.68383C2.35523 9.68383 2.1351 9.66165 1.91865 9.61721C1.76738 9.58656 1.6403 9.73975 1.68723 9.89635C2.13227 11.3809 3.32817 12.475 4.7595 12.7232C3.5717 13.5753 2.18829 14.0247 0.748672 14.0247L0.29994 14.0245C0.161439 14.0245 0.0444345 14.121 0.00942528 14.2641C-0.0252768 14.4049 0.038538 14.5537 0.156587 14.6271C1.7788 15.636 3.62931 16.1691 5.50857 16.1691C7.15364 16.1691 8.69244 15.8204 10.0822 15.1322C11.3564 14.5016 12.4823 13.6 13.4288 12.4526C14.3106 11.3837 14.9999 10.1498 15.478 8.78504C15.9336 7.48443 16.1745 6.09621 16.1745 4.77125V4.70798C16.1745 4.49526 16.2645 4.29508 16.4217 4.15863C17.0178 3.6413 17.5371 3.03248 17.9647 2.34897C18.0777 2.1686 17.8996 1.9423 17.7138 2.03031Z" fill="#8C959B" style="fill: var(--fill-color); stroke: var(--stroke-color)"/>
</svg>
