<svg width="280" height="280" viewBox="0 0 280 280" fill="none" xmlns="http://www.w3.org/2000/svg">
<g clip-path="url(#clip0)">
<path d="M241.817 254.546H38.1816L114.545 76.3636H165.454L241.817 254.546Z" fill="#BE8D7E"/>
<path d="M279.999 89.0901C279.999 60.9735 217.32 38.1818 140.001 38.1818C62.6793 38.1818 0 60.9735 0 89.0901C0 117.207 62.6793 140.001 140.001 140.001C217.32 140.001 279.999 117.207 279.999 89.0901Z" fill="#D6DEFF"/>
<path d="M279.999 89.0901C279.999 60.9735 217.32 38.1818 140.001 38.1818C62.6793 38.1818 0 60.9735 0 89.0901C0 117.207 62.6793 140.001 140.001 140.001C217.32 140.001 279.999 117.207 279.999 89.0901Z" fill="#333333"/>
<path d="M267.273 76.3636C267.273 55.2755 210.291 38.1818 140.001 38.1818C69.7103 38.1818 12.7266 55.2755 12.7266 76.3636C12.7266 97.4517 69.7103 114.545 140.001 114.545C210.291 114.545 267.273 97.4517 267.273 76.3636Z" fill="#999999"/>
<path d="M254.546 82.7281C254.546 65.1543 211.808 50.9083 159.091 50.9083C106.372 50.9083 63.6367 65.1543 63.6367 82.7281C63.6367 100.3 106.372 114.545 159.091 114.545C211.808 114.545 254.546 100.3 254.546 82.7281Z" fill="#666666"/>
<path d="M241.817 254.546C241.817 240.487 196.232 229.091 140.001 229.091C83.7672 229.091 38.1816 240.487 38.1816 254.546C38.1816 268.603 83.7672 279.999 140.001 279.999C196.232 279.999 241.817 268.603 241.817 254.546Z" fill="#996152"/>
<path d="M63.6367 76.3636C63.6367 34.1898 97.8242 0 140 0C182.174 0 216.364 34.1898 216.364 76.3636C216.364 76.3636 190.909 89.0901 140 89.0901C89.0897 89.0901 63.6367 76.3636 63.6367 76.3636Z" fill="#999999"/>
<path d="M138.865 18.4104C134.726 10.9041 120.482 10.8225 107.052 18.2287C93.6195 25.6324 86.0876 37.7204 90.2241 45.2267C94.3629 52.7307 108.607 52.8123 122.037 45.4085C135.469 38.0024 143.001 25.9167 138.865 18.4104Z" fill="#D6D6D6"/>
<path d="M111.891 15.3739C107.596 11.0835 99.6054 12.1182 94.0427 17.6857C88.48 23.2531 87.4522 31.2441 91.7472 35.5344C96.0399 39.8248 104.031 38.7901 109.594 33.2227C115.156 27.6552 116.184 19.6642 111.891 15.3739Z" fill="#F0F0F0"/>
<path d="M101.819 50.9083C101.819 57.9392 96.1207 63.6371 89.0898 63.6371C82.0612 63.6371 76.3633 57.9392 76.3633 50.9083C76.3633 43.8797 82.0612 38.1818 89.0898 38.1818C96.1207 38.1818 101.819 43.8797 101.819 50.9083Z" fill="white"/>
<path d="M152.727 63.6371C152.727 70.6657 147.029 76.3636 140 76.3636C132.969 76.3636 127.271 70.6657 127.271 63.6371C127.271 56.6062 132.969 50.9083 140 50.9083C147.029 50.9083 152.727 56.6062 152.727 63.6371Z" fill="white"/>
<path d="M203.635 50.9083C203.635 57.9392 197.937 63.6371 190.908 63.6371C183.88 63.6371 178.182 57.9392 178.182 50.9083C178.182 43.8797 183.88 38.1818 190.908 38.1818C197.937 38.1818 203.635 43.8797 203.635 50.9083Z" fill="white"/>
<path d="M76.3565 267.28C72.0825 267.27 68.0952 265.117 65.7438 261.545C63.3923 257.974 62.9868 253.463 64.6671 249.531L102.849 160.439C105.617 153.976 113.1 150.979 119.563 153.75C126.025 156.521 129.017 164.009 126.242 170.469L88.06 259.561C86.0558 264.243 81.4509 267.28 76.3565 267.28Z" fill="white" fill-opacity="0.5"/>
</g>
<defs>
<clipPath id="clip0">
<rect width="280" height="280" fill="white"/>
</clipPath>
</defs>
</svg>
