<svg width="18" height="18" viewBox="0 0 18 18" fill="none" xmlns="http://www.w3.org/2000/svg">
<path d="M15.5746 0H2.42548C1.08597 0 0 1.08588 0 2.42542V15.5742C0 16.9138 1.08591 17.9996 2.42548 17.9996H8.91045L8.92169 11.5678H7.25045C7.03327 11.5678 6.85699 11.3921 6.85626 11.1749L6.84809 9.10149C6.84723 8.88327 7.02418 8.70571 7.2424 8.70571H8.9107V6.70236C8.9107 4.37755 10.3306 3.11165 12.4045 3.11165H14.1065C14.3241 3.11165 14.5008 3.28817 14.5008 3.50596V5.25411C14.5008 5.4719 14.3243 5.64842 14.1067 5.64842L13.0622 5.64903C11.9343 5.64903 11.7158 6.18491 11.7158 6.97156V8.70596H14.1942C14.4305 8.70596 14.6137 8.9122 14.5857 9.14651L14.34 11.2199C14.3166 11.4184 14.1482 11.5679 13.9484 11.5679H11.727L11.7157 18H15.5745C16.914 18 18 16.914 18 15.5745V2.42542C18.0001 1.08594 16.9141 0 15.5746 0Z" fill="#8C959B" style="fill: var(--fill-color); stroke: var(--stroke-color)"/>
</svg>
