<svg xmlns="http://www.w3.org/2000/svg" width="252" height="280" fill="none"><path fill="#fff" d="M246.93 107.333h-42V35.4671a121.056 121.056 0 0 0 17.874-28.9342 4.6651 4.6651 0 0 0-.374-4.4206C221.569.7953 220.101 0 218.529 0H4.6642A4.6646 4.6646 0 0 0 .761 2.1123a4.6668 4.6668 0 0 0-.3714 4.4206A121.0233 121.0233 0 0 0 18.2632 35.467V140c.0159 12.881 10.4521 23.317 23.3333 23.333 5.0654-.018 9.985-1.7 14-4.787v14.121c.016 12.881 10.4522 23.317 23.3333 23.333h9.3334c0 12.886 10.4453 23.333 23.3338 23.333 12.885 0 23.333-10.447 23.333-23.333h112c2.577 0 4.667-2.09 4.667-4.667V112c0-2.577-2.09-4.667-4.667-4.667zM41.5965 154c-7.7314 0-14-6.269-14-14V33.7445c-.0023-1.1097-.3987-2.1853-1.1211-3.0284A112.9154 112.9154 0 0 1 12.0562 9.3333H211.137a112.9196 112.9196 0 0 1-14.422 21.3828 4.6684 4.6684 0 0 0-1.118 3.0284V140c0 7.731-6.269 14-14 14-7.732 0-14-6.269-14-14V62.7425c.004-1.6133-.828-3.1149-2.195-3.9694a4.6691 4.6691 0 0 0-4.53-.2301 111.1056 111.1056 0 0 1-31.352 9.9873c-2.26.3646-3.923 2.3151-3.923 4.6051v20.1979H97.5965V73.1445c0-2.29-1.6634-4.2405-3.9261-4.6051a111.078 111.078 0 0 1-31.3496-9.9873 4.6687 4.6687 0 0 0-4.5299.2301 4.6632 4.6632 0 0 0-2.1944 3.9694V140c0 7.731-6.2685 14-14 14zM158.263 99.5768l-20.3-23.1966A120.6248 120.6248 0 0 0 158.263 70v29.5768zm-69.9998-6.2435h-9.3334a23.1027 23.1027 0 0 0-14 4.7875V70a120.5452 120.5452 0 0 0 23.3334 7.0661v16.2672zm-9.3334 93.3337c-7.7314 0-14-6.269-14-14v-56c0-7.732 6.2686-14 14-14H120.93c2.577 0 4.667 2.089 4.667 4.666v9.334H88.2632V126h37.3338v14H88.2632v9.333h37.3338v14H88.2632v9.334h37.3338V182c0 2.577-2.09 4.667-4.667 4.667H78.9298zM111.597 210c-7.732 0-14.0005-6.269-14.0005-14h28.0005c0 7.731-6.269 14-14 14zm130.666-23.333H134.93V87.0899l23.333 26.6651V140c0 12.886 10.445 23.333 23.334 23.333 12.885 0 23.333-10.447 23.333-23.333v-23.333h37.333v70zM130.264 261.334v-.789c0-3.384-.921-6.704-2.662-9.604l-12.006-20.011a4.8473 4.8473 0 0 0-3.999-2.108c-1.6 0-3.097.788-3.999 2.108l-12.0086 20.006a18.657 18.657 0 0 0-2.6592 9.609v.789c0 10.308 8.3578 18.666 18.6668 18.666 10.308 0 18.667-8.358 18.667-18.666zm-28 0v-.789c0-1.691.46-3.352 1.328-4.803l8.005-13.337 8.002 13.328a9.3226 9.3226 0 0 1 1.331 4.812v.789c0 5.154-4.179 9.333-9.333 9.333s-9.333-4.179-9.333-9.333z"/></svg>