<svg width="18" height="18" viewBox="0 0 18 18" fill="none" xmlns="http://www.w3.org/2000/svg">
                              <path d="M12.7583 11.6177L12.4687 11.9619L12.7805 12.2861L17.0645 16.7417C17.2354 16.9195 17.2299 17.2041 17.052 17.3752L17.0519 17.3753C16.9681 17.456 16.859 17.5 16.7418 17.5C16.6179 17.5 16.5053 17.4522 16.419 17.3628C16.419 17.3627 16.4189 17.3626 16.4188 17.3625L12.1025 12.8733L11.8053 12.5643L11.4546 12.8108C10.3132 13.6129 8.98001 14.035 7.57841 14.035C3.84732 14.035 0.810913 10.9986 0.810913 7.26749C0.810913 3.5364 3.84732 0.5 7.57841 0.5C11.3095 0.5 14.3459 3.5364 14.3459 7.26749C14.3459 8.86446 13.7842 10.3981 12.7583 11.6177ZM13.45 7.26749C13.45 4.02937 10.8165 1.39587 7.57841 1.39587C4.34029 1.39587 1.70678 4.02937 1.70678 7.26749C1.70678 10.5056 4.34029 13.1391 7.57841 13.1391C10.8165 13.1391 13.45 10.5056 13.45 7.26749Z"
                                    stroke="#FFF"></path>
                            </svg>